<?xml version="1.0" encoding="UTF-8"?><!DOCTYPE svg PUBLIC '-//W3C//DTD SVG 1.1//EN' 'http://www.w3.org/Graphics/SVG/1.1/DTD/svg11.dtd'>
<svg version="1.1" viewBox="0 0 600 600" preserveAspectRatio="xMidYMid meet" xml:space="preserve" xmlns="http://www.w3.org/2000/svg">
    <g>
        <rect fill="#b71a49" x="0" width="100" height="100" rx="5" />
        <circle fill="#00638d" cx="200" cy="50" r="50" />
        <polygon fill="#f39100" points="300,100 400,100 350,0" />
        <polygon fill="#4aad32" points="475,100 525,100 550,75 550,25 525,0 475,0 450,25 450,75" />
        
        <polygon fill="#4aad32" points="25,250 75,250 100,225 100,175 75,150 25,150 0,175 0,225" />
        <rect fill="#b71a49" x="150" y="150" width="100" height="100" rx="5" />
        <circle fill="#00638d" cx="350" cy="200" r="50" />
        <polygon fill="#f39100" points="450,250 550,250 500,150" />
        
        <polygon fill="#f39100" points="0,400 100,400 50,300" />
        <polygon fill="#4aad32" points="175,400 225,400 250,375 250,325 225,300 175,300 150,325 150,375" />
        <rect fill="#b71a49" x="300" y="300" width="100" height="100" rx="5" />
        <circle fill="#00638d" cx="500" cy="350" r="50" />
        
        <circle fill="#00638d" cx="50" cy="500" r="50" />
        <polygon fill="#f39100" points="150,550 250,550 200,450" />
        <polygon fill="#4aad32" points="325,550 375,550 400,525 400,475 375,450 325,450 300,475 300,525" />
        <rect fill="#b71a49" x="450" y="450" width="100" height="100" rx="5" />
    </g>
</svg>